Coordinates
version=1
nRows=16
nColumns=63
inDegrees=yes

Units are S.I. units (second, meters, Newtons, ...)
If the header above contains a line with 'inDegrees', this indicates whether rotational values are in degrees (yes) or radians (no).

endheader
time	pelvis_tilt	pelvis_list	pelvis_rotation	pelvis_tx	pelvis_ty	pelvis_tz	hip_flexion_r	hip_adduction_r	hip_rotation_r	knee_angle_r	knee_angle_r_beta	ankle_angle_r	subtalar_angle_r	mtp_angle_r	hip_flexion_l	hip_adduction_l	hip_rotation_l	knee_angle_l	knee_angle_l_beta	ankle_angle_l	subtalar_angle_l	mtp_angle_l	L5_S1_Flex_Ext	L5_S1_Lat_Bending	L5_S1_axial_rotation	L4_L5_Flex_Ext	L4_L5_Lat_Bending	L4_L5_axial_rotation	L3_L4_Flex_Ext	L3_L4_Lat_Bending	L3_L4_axial_rotation	L2_L3_Flex_Ext	L2_L3_Lat_Bending	L2_L3_axial_rotation	L1_L2_Flex_Ext	L1_L2_Lat_Bending	L1_L2_axial_rotation	L1_T12_Flex_Ext	L1_T12_Lat_Bending	L1_T12_axial_rotation	Abs_r3	Abs_r2	Abs_r1	Abs_t1	Abs_t2	neck_flexion	neck_bending	neck_rotation	arm_flex_r	arm_add_r	arm_rot_r	elbow_flex_r	pro_sup_r	wrist_flex_r	wrist_dev_r	arm_flex_l	arm_add_l	arm_rot_l	elbow_flex_l	pro_sup_l	wrist_flex_l	wrist_dev_l
1.650000	-1.251443	-6.308256	99.022047	0.251522	0.664457	0.931470	4.778805	-3.140253	-5.405582	2.859989	0.049916	21.625206	8.703111	0.000000	7.361304	1.457593	-3.356416	7.443961	0.129922	23.694006	8.230183	0.000000	0.045308	-0.173470	0.566601	0.084142	-0.230716	0.602013	0.074437	-0.421776	0.602013	0.051783	-0.421776	0.495776	0.042073	-0.353741	0.460363	0.025889	-0.268706	0.424951	0.323632	-1.962332	3.151263	0.000000	0.000000	20.783959	5.381791	12.411525	-0.650050	-22.851674	39.215626	50.106034	70.279155	3.159353	-3.693050	-9.621978	-12.276880	0.999315	104.022417	89.105568	-9.606885	10.407523
1.666667	-1.322815	-6.306091	98.634970	0.252255	0.664738	0.931081	4.851393	-3.156025	-5.095103	2.971503	0.051863	21.671739	8.721171	0.000000	7.402945	1.457892	-3.669508	7.615735	0.132920	23.690542	8.067087	0.000000	0.040903	-0.188409	0.644960	0.075960	-0.250584	0.685270	0.067199	-0.458098	0.685270	0.046748	-0.458098	0.564340	0.037982	-0.384204	0.524030	0.023372	-0.291846	0.483720	0.292163	-2.131322	3.587074	0.000000	0.000000	20.564727	5.340331	12.308508	-1.001553	-23.078448	39.052002	50.626407	68.979873	3.473426	-3.551965	-9.885510	-12.592066	0.568309	104.592538	89.084532	-9.615822	9.927001
1.683333	-1.371947	-6.308957	98.252520	0.252889	0.664987	0.930666	4.933336	-3.155149	-4.775195	3.083569	0.053818	21.700713	8.722820	0.000000	7.429277	1.444225	-3.956300	7.745737	0.135189	23.688565	7.895456	0.000000	0.037244	-0.198126	0.704014	0.069165	-0.263508	0.748015	0.061188	-0.481724	0.748015	0.042566	-0.481724	0.616012	0.034585	-0.404019	0.572011	0.021281	-0.306897	0.528010	0.266029	-2.241241	3.915514	0.000000	0.000000	20.361728	5.319895	12.380324	-1.281223	-23.321472	39.072025	51.119300	67.595408	3.689989	-3.541173	-10.227307	-12.877216	0.041737	105.182165	89.031021	-9.656117	9.486138
1.700000	-1.388994	-6.337973	97.949577	0.253364	0.665181	0.930283	5.049042	-3.139524	-4.539949	3.208777	0.056004	21.713119	8.723832	0.000000	7.488093	1.415678	-4.198136	7.867942	0.137321	23.699141	7.785127	0.000000	0.036780	-0.202757	0.732116	0.068304	-0.269667	0.777873	0.060425	-0.492983	0.777873	0.042036	-0.492983	0.640601	0.034154	-0.413462	0.594844	0.021016	-0.314071	0.549087	0.262714	-2.293628	4.071809	0.000000	0.000000	20.201111	5.329616	12.613553	-1.483061	-23.566777	39.275221	51.541414	66.284336	3.775649	-3.841186	-10.633507	-13.145687	-0.552785	105.773357	88.932890	-9.757312	9.037520
1.716667	-1.384207	-6.375575	97.654247	0.253744	0.665335	0.929871	5.176657	-3.106533	-4.211279	3.332805	0.058168	21.693315	8.592278	0.000000	7.527761	1.375634	-4.410765	7.932222	0.138443	23.705141	7.658358	0.000000	0.037456	-0.202731	0.744676	0.069559	-0.269632	0.791218	0.061536	-0.492919	0.791218	0.042808	-0.492919	0.651591	0.034781	-0.413408	0.605049	0.021402	-0.314030	0.558507	0.267541	-2.293328	4.141664	0.000000	0.000000	20.067359	5.377147	13.025629	-1.626025	-23.840644	39.617855	51.970779	65.055024	3.727415	-4.244973	-11.086894	-13.373205	-1.218499	106.352626	88.800273	-9.874449	8.664158
1.733333	-1.348721	-6.425627	97.451167	0.253942	0.665450	0.929470	5.315436	-3.058708	-3.973925	3.463379	0.060447	21.659013	8.457007	0.000000	7.571831	1.324193	-4.534691	7.961465	0.138954	23.706785	7.552693	0.000000	0.039965	-0.198132	0.730851	0.074220	-0.263515	0.776529	0.065659	-0.481737	0.776529	0.045676	-0.481737	0.639495	0.037112	-0.404030	0.593816	0.022836	-0.306906	0.548138	0.285468	-2.241305	4.064774	0.000000	0.000000	19.966701	5.440264	13.539330	-1.733387	-24.130769	40.057443	52.381257	64.028698	3.553505	-4.859216	-11.565370	-13.570547	-1.913444	106.902639	88.639474	-10.024304	8.332723
1.750000	-1.297404	-6.485949	97.261883	0.254065	0.665542	0.929046	5.468288	-3.003641	-3.780223	3.600064	0.062833	21.627338	8.362547	0.000000	7.591556	1.266964	-4.625906	7.917559	0.138187	23.680364	7.437562	0.000000	0.045013	-0.191373	0.713856	0.083595	-0.254526	0.758472	0.073953	-0.465305	0.758472	0.051446	-0.465305	0.624624	0.041800	-0.390248	0.580008	0.025721	-0.296437	0.535392	0.321527	-2.164853	3.970251	0.000000	0.000000	19.844030	5.524664	14.087801	-1.867999	-24.421244	40.459951	52.794570	63.304372	3.275408	-5.566244	-12.033151	-13.731130	-2.602225	107.401009	88.455050	-10.145369	8.096054
1.766667	-1.230111	-6.543150	97.114852	0.254101	0.665618	0.928648	5.618254	-2.937825	-3.601447	3.740354	0.065281	21.598027	8.230014	0.000000	7.594601	1.203504	-4.653175	7.836870	0.136779	23.643365	7.304165	0.000000	0.049399	-0.183485	0.690414	0.091740	-0.244035	0.733565	0.081158	-0.446126	0.733565	0.056459	-0.446126	0.604113	0.045872	-0.374163	0.560962	0.028227	-0.284218	0.517811	0.352856	-2.075620	3.839878	0.000000	0.000000	19.737400	5.584733	14.556391	-2.030016	-24.713722	40.840305	53.216082	62.523072	2.952088	-6.343579	-12.484207	-13.822913	-3.296140	107.865962	88.267904	-10.222517	7.932761
1.783333	-1.138309	-6.605806	97.037881	0.254044	0.665677	0.928355	5.774618	-2.853072	-3.466525	3.880957	0.067735	21.565135	8.056514	0.000000	7.596904	1.127929	-4.605319	7.715819	0.134666	23.581273	7.180911	0.000000	0.053440	-0.173687	0.654815	0.099244	-0.231003	0.695741	0.087797	-0.422302	0.695741	0.061077	-0.422302	0.572963	0.049625	-0.354182	0.532037	0.030536	-0.269041	0.491111	0.381719	-1.964779	3.641885	0.000000	0.000000	19.632772	5.669596	15.051114	-2.205757	-24.998210	41.203513	53.626522	61.978488	2.441936	-7.221030	-12.916950	-13.842014	-3.988379	108.318333	88.080505	-10.295428	7.834973
1.800000	-1.049593	-6.675960	96.962260	0.253974	0.665703	0.928117	5.949657	-2.778360	-3.403502	4.043939	0.070580	21.572110	7.997988	0.000000	7.591976	1.061465	-4.546226	7.561912	0.131980	23.505387	7.036718	0.000000	0.058067	-0.165849	0.627836	0.107836	-0.220579	0.667076	0.095398	-0.403246	0.667076	0.066365	-0.403246	0.549357	0.053921	-0.338200	0.510117	0.033180	-0.256900	0.470877	0.414768	-1.876120	3.491836	0.000000	0.000000	19.502326	5.751531	15.431834	-2.526300	-25.205873	41.229043	54.075767	61.587786	1.985438	-7.952709	-13.315916	-13.793132	-4.653200	108.751074	87.894683	-10.288487	7.747094
1.816667	-0.944940	-6.733476	96.935268	0.253848	0.665729	0.927984	6.109934	-2.689153	-3.382793	4.205322	0.073397	21.582093	7.950545	0.000000	7.564143	0.987021	-4.405236	7.366938	0.128577	23.403485	6.863351	0.000000	0.059525	-0.157249	0.599440	0.110544	-0.209141	0.636905	0.097793	-0.382335	0.636905	0.068031	-0.382335	0.524510	0.055275	-0.320662	0.487045	0.034013	-0.243578	0.449580	0.425180	-1.778830	3.333907	0.000000	0.000000	19.345051	5.810309	15.721987	-2.930240	-25.384614	41.066475	54.571708	61.339536	1.468263	-8.616717	-13.669385	-13.691169	-5.277321	109.175216	87.729513	-10.231266	7.674492
1.833333	-0.837587	-6.797910	96.938343	0.253687	0.665726	0.927975	6.275932	-2.602405	-3.415482	4.363279	0.076154	21.615729	7.967312	0.000000	7.544614	0.918276	-4.237178	7.156899	0.124911	23.300112	6.680509	0.000000	0.059323	-0.149524	0.572295	0.110169	-0.198866	0.608064	0.097462	-0.363552	0.608064	0.067801	-0.363552	0.500759	0.055088	-0.304909	0.464990	0.033897	-0.231612	0.429222	0.423741	-1.691441	3.182936	0.000000	0.000000	19.183242	5.852964	15.931785	-3.437809	-25.500738	40.607782	55.126228	61.339056	0.958147	-9.141656	-13.991421	-13.540094	-5.868591	109.600842	87.581664	-10.124791	7.547960
1.850000	-0.730640	-6.874683	96.948724	0.253557	0.665704	0.928091	6.457582	-2.519123	-3.500074	4.519742	0.078884	21.652762	8.069016	0.000000	7.541663	0.852200	-4.059854	6.940381	0.121132	23.183944	6.483580	0.000000	0.058256	-0.142980	0.552461	0.108187	-0.190163	0.586990	0.095708	-0.347641	0.586990	0.066580	-0.347641	0.483403	0.054096	-0.291565	0.448875	0.033287	-0.221476	0.414346	0.416114	-1.617417	3.072622	0.000000	0.000000	19.032754	5.858543	16.055886	-4.052885	-25.541281	39.813050	55.748782	61.534838	0.563818	-9.402562	-14.262454	-13.376942	-6.391500	109.989134	87.457254	-9.988010	7.275224
1.866667	-0.628835	-6.952527	96.970573	0.253455	0.665669	0.928304	6.632636	-2.443377	-3.666919	4.662831	0.081382	21.697743	8.294325	0.000000	7.536856	0.791747	-3.878041	6.708078	0.117078	23.061710	6.301063	0.000000	0.055215	-0.137621	0.539316	0.102540	-0.183035	0.573023	0.090713	-0.334611	0.573023	0.063105	-0.334611	0.471902	0.051273	-0.280636	0.438194	0.031550	-0.213174	0.404487	0.394394	-1.556791	2.999514	0.000000	0.000000	18.907971	5.819972	16.090610	-4.767239	-25.520860	38.726737	56.458469	61.881173	0.256320	-9.414552	-14.468067	-13.230647	-6.831666	110.341971	87.317258	-9.808936	6.953718
1.883333	-0.537550	-7.036945	96.989798	0.253406	0.665612	0.928595	6.805478	-2.379838	-3.907072	4.790676	0.083613	21.752561	8.638177	0.000000	7.537642	0.739267	-3.711900	6.469397	0.112912	22.936784	6.134738	0.000000	0.051500	-0.133832	0.531717	0.095640	-0.177996	0.564950	0.084609	-0.325398	0.564950	0.058859	-0.325398	0.465253	0.047823	-0.272909	0.432020	0.029427	-0.207305	0.398788	0.367858	-1.513930	2.957252	0.000000	0.000000	18.832322	5.743362	16.066627	-5.562678	-25.431532	37.377181	57.239175	62.485012	0.055404	-9.235578	-14.606566	-13.113093	-7.202280	110.647675	87.169434	-9.602559	6.603456
1.900000	-0.456326	-7.122554	97.015395	0.253399	0.665534	0.928947	6.959656	-2.324787	-4.184218	4.883956	0.085241	21.804498	9.032564	0.000000	7.537562	0.696255	-3.512446	6.223328	0.108618	22.803446	5.936837	0.000000	0.046835	-0.130997	0.527305	0.086978	-0.174227	0.560262	0.076946	-0.318507	0.560262	0.053528	-0.318507	0.461392	0.043491	-0.267130	0.428436	0.026762	-0.202915	0.395479	0.334540	-1.481869	2.932714	0.000000	0.000000	18.830104	5.597059	15.979403	-6.443216	-25.278008	35.762389	58.107718	63.295770	-0.036185	-8.825665	-14.656812	-13.030827	-7.506599	110.890726	87.003402	-9.332235	6.307420
